# xmcd
#
# Track frame offsets:
#	150
#	9291
#	18391
#	31373
#	38997
#	54798
#	65725
#	81067
#	106309
#	123249
#	131435
#	142968
#	161721
#	176011
#
# Disc length: 2513 seconds
#
# Revision: 0
# Processed by: cddbd v1.5.2PL0 Copyright (c) Steve Scherf et al.
# Submitted via: EasyCDDAExtractor 16.0.6.1
#
DISCID=ae09cf0e
DTITLE=Συλλογικός δίσκος - Όμορφη πόλη-LP 1962, Μ. Θεοδωράκης
DYEAR=2007
DGENRE=Έντεχνη λαϊκή
TTITLE0=Άνευ ερμηνευτού - Εισαγωγή [Ορχήστρα]
TTITLE1=Ντούζος Ανδρέας - Σερενάτα [στ. Μ. Μποσταντζόγλου]
TTITLE2=Γιαννακοπούλου Ντόρα - Όταν με δήτε να μιλώ [στ. Δημ. Χριστοδούλου]
TTITLE3=Χορωδία - Το τραγούδι του σπιτιού [στ. Ερρ. Θαλασσινού]
TTITLE4=Μπιθικώτσης Γρηγόρης-χορωδία - Το τραγούδι της ξενητειάς [στ. Ερρ. Θαλ
TTITLE4=ασσινού]
TTITLE5=Γιαννακοπούλου Ντόρα - Νανούρισμα [στ. Ερρ. Θαλασσινού]]
TTITLE6=Μπιθικώτσης Γρηγόρης-χορωδία - Μέσα στα μαύρα σου μαλλιά [στ. Ά. Δασκα
TTITLE6=λόπουλου]
TTITLE7=Μπιθικώτσης Γρηγόρης-χορωδία - Καϋμός [στ. Δημ. Χριστοδούλου]
TTITLE8=Γιαννακοπούλου Ντόρα - Εκείνος που μάς χάθηκε [στ. Δημ. Χριστοδούλου]
TTITLE9=Καλουτά Άννα-Καλουτά Μαρία - Το τραγούδι του γάμου [στ. Ερρ. Θαλασσινο
TTITLE9=ύ]
TTITLE10=Μπιθικώτσης Γρηγόρης-χορωδία - Του Χάρου [στ. Ερρ. Θαλασσινού]
TTITLE11=Γιανακοπούλου Ντόρα - Θλιμμένη ματιά [στ. Δημ. Χριστοδούλου]
TTITLE12=Χορωδία - Το τραγούδι της δουλειάς [στ. Ερρ. Θαλασσινού]
TTITLE13=Άνευ ερμηνευτού - Κρητικός χορός [ορχ., Κ. Παπαδόπουλος, Λ. Καρνέζης 
TTITLE13=(μπ.)]
EXTD=
EXTT0=
EXTT1=
EXTT2=
EXTT3=
EXTT4=
EXTT5=
EXTT6=
EXTT7=
EXTT8=
EXTT9=
EXTT10=
EXTT11=
EXTT12=
EXTT13=
PLAYORDER=
